# xmcd
# 
# Track frame offsets:
#     150
#     20116
#     39271
#     63834
#     82488
#     103371
#     121917
#     147743
#     165294
#     186664
#     202856
#     221523
#     243254
#     261225
#     280291
#     296230
#     320539
#     341300
# 
# Disc length: 4796
# 
# Revision: 2
# Processed by: cddbd v1.5.2PL0 Copyright (c) Steve Scherf et al.
# Submitted via: fre:ac v1.0.31
# 
DISCID=1e12ba12
DTITLE=Illumenium - Towards Endless 8
DYEAR=2016
DGENRE=Other
TTITLE0=For My Old Friend
TTITLE1=Dream Made Of Stone
TTITLE2=Jackal
TTITLE3=My Last Cocaine
TTITLE4=La Bruja
TTITLE5=Save Us From Religion
TTITLE6=We Are Metal
TTITLE7=Towards Endless 8
TTITLE8=The Sick Letter
TTITLE9=My Own Way
TTITLE10=Bulgaria
TTITLE11=Save Us From Religion 2
TTITLE12=Hotel Breakers
TTITLE13=Shot Locker
TTITLE14=Incomplete
TTITLE15=The Facebook
TTITLE16=Stairway To No Heaven
TTITLE17=We Never Die
EXTD=
EXTT0=
EXTT1=
EXTT2=
EXTT3=
EXTT4=
EXTT5=
EXTT6=
EXTT7=
EXTT8=
EXTT9=
EXTT10=
EXTT11=
EXTT12=
EXTT13=
EXTT14=
EXTT15=
EXTT16=
EXTT17=
PLAYORDER=
